<svg xmlns="http://www.w3.org/2000/svg" xmlns:xlink="http://www.w3.org/1999/xlink" width="500" zoomAndPan="magnify" viewBox="0 0 375 374.999991" height="500" preserveAspectRatio="xMidYMid meet" version="1.0"><defs><g/></defs><rect x="-37.5" width="450" fill="#ffffff" y="-37.499999" height="449.999989" fill-opacity="1"/><rect x="-37.5" width="450" fill="#ffffff" y="-37.499999" height="449.999989" fill-opacity="1"/><g fill="#000000" fill-opacity="1"><g transform="translate(71.52539, 200.249987)"><g><path d="M 1.765625 0 L 1.765625 -26.71875 L 10.5625 -26.71875 C 12.75 -26.71875 14.78125 -26.5 16.65625 -26.0625 C 18.539062 -25.625 20.179688 -24.890625 21.578125 -23.859375 C 22.984375 -22.828125 24.078125 -21.453125 24.859375 -19.734375 C 25.648438 -18.015625 26.046875 -15.890625 26.046875 -13.359375 C 26.046875 -10.796875 25.648438 -8.660156 24.859375 -6.953125 C 24.078125 -5.253906 22.984375 -3.890625 21.578125 -2.859375 C 20.179688 -1.828125 18.539062 -1.09375 16.65625 -0.65625 C 14.78125 -0.21875 12.75 0 10.5625 0 Z M 8.078125 -5.3125 L 10.6875 -5.3125 C 11.832031 -5.3125 12.929688 -5.40625 13.984375 -5.59375 C 15.035156 -5.78125 15.976562 -6.144531 16.8125 -6.6875 C 17.65625 -7.238281 18.316406 -8.046875 18.796875 -9.109375 C 19.273438 -10.179688 19.515625 -11.597656 19.515625 -13.359375 C 19.515625 -15.117188 19.273438 -16.535156 18.796875 -17.609375 C 18.316406 -18.691406 17.65625 -19.503906 16.8125 -20.046875 C 15.976562 -20.597656 15.035156 -20.972656 13.984375 -21.171875 C 12.929688 -21.378906 11.832031 -21.484375 10.6875 -21.484375 L 8.078125 -21.484375 Z M 8.078125 -5.3125 "/></g></g></g><g fill="#000000" fill-opacity="1"><g transform="translate(98.962667, 200.249987)"><g><path d="M 1.203125 0 L 1.203125 -4.84375 L 11.484375 -15 L 1.765625 -15 L 1.765625 -19.84375 L 19.28125 -19.84375 L 19.28125 -15 L 9.046875 -4.84375 L 19.84375 -4.84375 L 19.84375 0 Z M 1.203125 0 "/></g></g></g><g fill="#000000" fill-opacity="1"><g transform="translate(119.60062, 200.249987)"><g><path d="M 11.84375 0.484375 C 9.707031 0.484375 7.816406 0.0625 6.171875 -0.78125 C 4.535156 -1.625 3.253906 -2.832031 2.328125 -4.40625 C 1.410156 -5.976562 0.953125 -7.859375 0.953125 -10.046875 C 0.953125 -12.148438 1.4375 -13.972656 2.40625 -15.515625 C 3.382812 -17.066406 4.679688 -18.269531 6.296875 -19.125 C 7.910156 -19.976562 9.675781 -20.40625 11.59375 -20.40625 C 13.78125 -20.40625 15.65625 -19.890625 17.21875 -18.859375 C 18.78125 -17.828125 19.957031 -16.410156 20.75 -14.609375 C 21.550781 -12.816406 21.890625 -10.75 21.765625 -8.40625 L 7.078125 -8.40625 C 7.179688 -7.007812 7.691406 -5.960938 8.609375 -5.265625 C 9.535156 -4.578125 10.5625 -4.234375 11.6875 -4.234375 C 12.613281 -4.234375 13.414062 -4.375 14.09375 -4.65625 C 14.78125 -4.9375 15.3125 -5.289062 15.6875 -5.71875 L 20.515625 -3.953125 C 19.472656 -2.441406 18.171875 -1.320312 16.609375 -0.59375 C 15.054688 0.125 13.46875 0.484375 11.84375 0.484375 Z M 7.078125 -12 L 16.125 -12 C 16.09375 -13.28125 15.648438 -14.242188 14.796875 -14.890625 C 13.941406 -15.546875 12.929688 -15.875 11.765625 -15.875 C 10.617188 -15.875 9.597656 -15.566406 8.703125 -14.953125 C 7.804688 -14.347656 7.265625 -13.363281 7.078125 -12 Z M 7.078125 -12 "/></g></g></g><g fill="#000000" fill-opacity="1"><g transform="translate(142.238371, 200.249987)"><g><path d="M 2 0 L 2 -19.84375 L 7.3125 -19.84375 L 8.078125 -17.203125 C 8.535156 -17.941406 9.289062 -18.660156 10.34375 -19.359375 C 11.394531 -20.054688 12.679688 -20.40625 14.203125 -20.40625 C 16.765625 -20.40625 18.515625 -19.691406 19.453125 -18.265625 C 20.398438 -16.835938 20.875 -14.773438 20.875 -12.078125 L 20.875 0 L 14.796875 0 L 14.796875 -10.5625 C 14.796875 -11.488281 14.742188 -12.335938 14.640625 -13.109375 C 14.535156 -13.890625 14.273438 -14.515625 13.859375 -14.984375 C 13.441406 -15.453125 12.742188 -15.6875 11.765625 -15.6875 C 10.484375 -15.6875 9.546875 -15.222656 8.953125 -14.296875 C 8.367188 -13.378906 8.078125 -12.015625 8.078125 -10.203125 L 8.078125 0 Z M 2 0 "/></g></g></g><g fill="#000000" fill-opacity="1"><g transform="translate(165.116094, 200.249987)"><g><path d="M 7.078125 0 L 0 -19.84375 L 6.28125 -19.84375 L 10.515625 -6.3125 L 14.765625 -19.84375 L 21.046875 -19.84375 L 13.921875 0 Z M 7.078125 0 "/></g></g></g><g fill="#000000" fill-opacity="1"><g transform="translate(186.154006, 200.249987)"><g><path d="M 11.484375 0.484375 C 9.640625 0.484375 7.914062 0.109375 6.3125 -0.640625 C 4.71875 -1.390625 3.425781 -2.539062 2.4375 -4.09375 C 1.445312 -5.65625 0.953125 -7.625 0.953125 -10 C 0.953125 -12.394531 1.445312 -14.359375 2.4375 -15.890625 C 3.425781 -17.429688 4.71875 -18.566406 6.3125 -19.296875 C 7.914062 -20.035156 9.640625 -20.40625 11.484375 -20.40625 C 13.296875 -20.40625 15 -20.035156 16.59375 -19.296875 C 18.195312 -18.566406 19.488281 -17.429688 20.46875 -15.890625 C 21.457031 -14.359375 21.953125 -12.394531 21.953125 -10 C 21.953125 -7.625 21.457031 -5.65625 20.46875 -4.09375 C 19.488281 -2.539062 18.195312 -1.390625 16.59375 -0.640625 C 15 0.109375 13.296875 0.484375 11.484375 0.484375 Z M 11.484375 -4.234375 C 12.703125 -4.234375 13.71875 -4.671875 14.53125 -5.546875 C 15.351562 -6.429688 15.765625 -7.914062 15.765625 -10 C 15.765625 -12.101562 15.34375 -13.578125 14.5 -14.421875 C 13.65625 -15.265625 12.648438 -15.6875 11.484375 -15.6875 C 10.285156 -15.6875 9.265625 -15.265625 8.421875 -14.421875 C 7.578125 -13.578125 7.15625 -12.101562 7.15625 -10 C 7.15625 -7.914062 7.566406 -6.429688 8.390625 -5.546875 C 9.222656 -4.671875 10.253906 -4.234375 11.484375 -4.234375 Z M 11.484375 -4.234375 "/></g></g></g><g fill="#000000" fill-opacity="1"><g transform="translate(209.071726, 200.249987)"><g><path d="M 12.5625 0.484375 C 9.65625 0.484375 7.207031 -0.109375 5.21875 -1.296875 C 3.226562 -2.484375 1.820312 -4.144531 1 -6.28125 L 6.765625 -8.359375 C 7.128906 -7.078125 7.828125 -6.128906 8.859375 -5.515625 C 9.890625 -4.898438 11.132812 -4.59375 12.59375 -4.59375 C 13.375 -4.59375 14.125 -4.679688 14.84375 -4.859375 C 15.5625 -5.035156 16.160156 -5.328125 16.640625 -5.734375 C 17.117188 -6.148438 17.359375 -6.707031 17.359375 -7.40625 C 17.359375 -8.332031 16.90625 -9.054688 16 -9.578125 C 15.09375 -10.097656 13.921875 -10.492188 12.484375 -10.765625 L 9.234375 -11.40625 C 7.796875 -11.695312 6.457031 -12.140625 5.21875 -12.734375 C 3.976562 -13.335938 2.984375 -14.140625 2.234375 -15.140625 C 1.492188 -16.140625 1.125 -17.398438 1.125 -18.921875 C 1.125 -20.359375 1.457031 -21.597656 2.125 -22.640625 C 2.789062 -23.679688 3.675781 -24.535156 4.78125 -25.203125 C 5.882812 -25.867188 7.101562 -26.367188 8.4375 -26.703125 C 9.769531 -27.035156 11.101562 -27.203125 12.4375 -27.203125 C 13.875 -27.203125 15.265625 -27 16.609375 -26.59375 C 17.960938 -26.195312 19.171875 -25.578125 20.234375 -24.734375 C 21.304688 -23.898438 22.125 -22.789062 22.6875 -21.40625 L 16.953125 -19.3125 C 16.609375 -20.226562 15.988281 -20.925781 15.09375 -21.40625 C 14.207031 -21.882812 13.132812 -22.125 11.875 -22.125 C 10.65625 -22.125 9.632812 -21.898438 8.8125 -21.453125 C 8 -21.015625 7.59375 -20.382812 7.59375 -19.5625 C 7.59375 -18.894531 7.875 -18.320312 8.4375 -17.84375 C 9 -17.363281 9.734375 -17.03125 10.640625 -16.84375 L 14.234375 -16.125 C 15.328125 -15.90625 16.429688 -15.628906 17.546875 -15.296875 C 18.671875 -14.960938 19.707031 -14.519531 20.65625 -13.96875 C 21.601562 -13.425781 22.367188 -12.703125 22.953125 -11.796875 C 23.546875 -10.890625 23.84375 -9.742188 23.84375 -8.359375 C 23.84375 -6.941406 23.515625 -5.679688 22.859375 -4.578125 C 22.203125 -3.472656 21.332031 -2.546875 20.25 -1.796875 C 19.175781 -1.054688 17.972656 -0.488281 16.640625 -0.09375 C 15.304688 0.289062 13.945312 0.484375 12.5625 0.484375 Z M 12.5625 0.484375 "/></g></g></g><g fill="#000000" fill-opacity="1"><g transform="translate(233.829266, 200.249987)"><g><path d="M 2 0 L 2 -26.71875 L 8.078125 -26.71875 L 8.078125 -17.203125 C 8.535156 -17.941406 9.289062 -18.660156 10.34375 -19.359375 C 11.394531 -20.054688 12.679688 -20.40625 14.203125 -20.40625 C 16.765625 -20.40625 18.515625 -19.691406 19.453125 -18.265625 C 20.398438 -16.835938 20.875 -14.773438 20.875 -12.078125 L 20.875 0 L 14.796875 0 L 14.796875 -10.5625 C 14.796875 -11.488281 14.742188 -12.335938 14.640625 -13.109375 C 14.535156 -13.890625 14.273438 -14.515625 13.859375 -14.984375 C 13.441406 -15.453125 12.742188 -15.6875 11.765625 -15.6875 C 10.484375 -15.6875 9.546875 -15.222656 8.953125 -14.296875 C 8.367188 -13.378906 8.078125 -12.015625 8.078125 -10.203125 L 8.078125 0 Z M 2 0 "/></g></g></g><g fill="#000000" fill-opacity="1"><g transform="translate(256.706989, 200.249987)"><g><path d="M 11.484375 0.484375 C 9.640625 0.484375 7.914062 0.109375 6.3125 -0.640625 C 4.71875 -1.390625 3.425781 -2.539062 2.4375 -4.09375 C 1.445312 -5.65625 0.953125 -7.625 0.953125 -10 C 0.953125 -12.394531 1.445312 -14.359375 2.4375 -15.890625 C 3.425781 -17.429688 4.71875 -18.566406 6.3125 -19.296875 C 7.914062 -20.035156 9.640625 -20.40625 11.484375 -20.40625 C 13.296875 -20.40625 15 -20.035156 16.59375 -19.296875 C 18.195312 -18.566406 19.488281 -17.429688 20.46875 -15.890625 C 21.457031 -14.359375 21.953125 -12.394531 21.953125 -10 C 21.953125 -7.625 21.457031 -5.65625 20.46875 -4.09375 C 19.488281 -2.539062 18.195312 -1.390625 16.59375 -0.640625 C 15 0.109375 13.296875 0.484375 11.484375 0.484375 Z M 11.484375 -4.234375 C 12.703125 -4.234375 13.71875 -4.671875 14.53125 -5.546875 C 15.351562 -6.429688 15.765625 -7.914062 15.765625 -10 C 15.765625 -12.101562 15.34375 -13.578125 14.5 -14.421875 C 13.65625 -15.265625 12.648438 -15.6875 11.484375 -15.6875 C 10.285156 -15.6875 9.265625 -15.265625 8.421875 -14.421875 C 7.578125 -13.578125 7.15625 -12.101562 7.15625 -10 C 7.15625 -7.914062 7.566406 -6.429688 8.390625 -5.546875 C 9.222656 -4.671875 10.253906 -4.234375 11.484375 -4.234375 Z M 11.484375 -4.234375 "/></g></g></g><g fill="#000000" fill-opacity="1"><g transform="translate(279.624697, 200.249987)"><g><path d="M 2 6.4375 L 2 -19.84375 L 7.28125 -19.84375 L 8.078125 -17.125 C 8.722656 -18.21875 9.625 -19.035156 10.78125 -19.578125 C 11.9375 -20.128906 13.050781 -20.40625 14.125 -20.40625 C 15.832031 -20.40625 17.34375 -19.976562 18.65625 -19.125 C 19.976562 -18.269531 21.007812 -17.0625 21.75 -15.5 C 22.5 -13.9375 22.875 -12.078125 22.875 -9.921875 C 22.875 -7.765625 22.5 -5.90625 21.75 -4.34375 C 21.007812 -2.78125 19.976562 -1.582031 18.65625 -0.75 C 17.34375 0.0703125 15.832031 0.484375 14.125 0.484375 C 13.050781 0.484375 11.9375 0.203125 10.78125 -0.359375 C 9.625 -0.921875 8.722656 -1.75 8.078125 -2.84375 L 8.078125 6.4375 Z M 12.203125 -4.234375 C 13.367188 -4.234375 14.382812 -4.710938 15.25 -5.671875 C 16.125 -6.640625 16.5625 -8.054688 16.5625 -9.921875 C 16.5625 -11.734375 16.125 -13.144531 15.25 -14.15625 C 14.382812 -15.175781 13.367188 -15.6875 12.203125 -15.6875 C 11.003906 -15.6875 9.96875 -15.257812 9.09375 -14.40625 C 8.226562 -13.550781 7.796875 -12.097656 7.796875 -10.046875 C 7.796875 -8.015625 8.226562 -6.535156 9.09375 -5.609375 C 9.96875 -4.691406 11.003906 -4.234375 12.203125 -4.234375 Z M 12.203125 -4.234375 "/></g></g></g></svg>